<svg width="800" height="800" viewBox="0 0 24 24" fill="none" xmlns="http://www.w3.org/2000/svg"><path fill="#cccccc" d="M13.75 5V2.25h.502c.325-.001.677-.002 1.003.133.327.136.575.385.805.616l.056.056 2.829 2.829.056.056c.231.23.48.478.616.805.135.326.134.678.133 1.003v.502H17c-.964 0-1.612-.002-2.095-.067-.461-.062-.659-.169-.789-.3-.13-.13-.237-.327-.3-.788-.064-.483-.066-1.131-.066-2.095Z"/><path fill="#cccccc"  d="M12.25 5.052V2.25H8.948c-.898 0-1.648 0-2.242.08-.628.084-1.195.27-1.65.725-.456.456-.642 1.023-.726 1.65-.08.595-.08 1.345-.08 2.243v9.802h.5V16a2.25 2.25 0 0 1 4.5 0v.75H10a2.25 2.25 0 0 1 0 4.5h-.75v.5h5.802c.899 0 1.648 0 2.242-.08.628-.084 1.195-.27 1.65-.725.456-.456.642-1.023.726-1.65.08-.595.08-1.345.08-2.243V9.75h-2.802c-.899 0-1.648 0-2.242-.08-.628-.084-1.195-.27-1.65-.725-.456-.456-.642-1.023-.726-1.65-.08-.595-.08-1.345-.08-2.243Z" fill="#000"/><path fill="#cccccc" d="M8 16a1 1 0 1 0-2 0v2H4a1 1 0 1 0 0 2h2v2a1 1 0 1 0 2 0v-2h2a1 1 0 1 0 0-2H8v-2Z"/></svg>