<svg xmlns="http://www.w3.org/2000/svg" viewBox="0 0 477.867 477.867">
    <path
        fill='#333333'
        d="M460.8 119.467h-85.333v-102.4C375.467 7.641 367.826 0 358.4 0H17.067C7.641 0 0 7.641 0 17.067V409.6c0 37.703 30.564 68.267 68.267 68.267H409.6c37.703 0 68.267-30.564 68.267-68.267V136.533c0-9.425-7.641-17.066-17.067-17.066zM68.267 443.733c-18.851 0-34.133-15.282-34.133-34.133V34.133h307.2V409.6a67.492 67.492 0 001.246 12.254c.171.973.358 1.929.58 2.884a68.467 68.467 0 003.516 11.315c0 .171.171.324.239.478a67.333 67.333 0 003.584 7.202H68.267zM443.733 409.6c0 18.851-15.282 34.133-34.133 34.133s-34.133-15.282-34.133-34.133v-256h68.267v256z" />
    <path
        fill='#333333'
        d="M238.933 85.333h-102.4c-9.426 0-17.067 7.641-17.067 17.067s7.641 17.067 17.067 17.067h102.4c9.426 0 17.067-7.641 17.067-17.067s-7.641-17.067-17.067-17.067zM290.133 170.667h-204.8c-9.426 0-17.067 7.641-17.067 17.067s7.641 17.067 17.067 17.067h204.8c9.426 0 17.067-7.641 17.067-17.067s-7.641-17.067-17.067-17.067zM290.133 238.933h-204.8c-9.426 0-17.067 7.641-17.067 17.067s7.641 17.067 17.067 17.067h204.8c9.426 0 17.067-7.641 17.067-17.067s-7.641-17.067-17.067-17.067zM290.133 307.2h-204.8c-9.426 0-17.067 7.641-17.067 17.067s7.641 17.067 17.067 17.067h204.8c9.426 0 17.067-7.641 17.067-17.067s-7.641-17.067-17.067-17.067zM290.133 375.467h-204.8c-9.426 0-17.067 7.641-17.067 17.067S75.908 409.6 85.333 409.6h204.8c9.426 0 17.067-7.641 17.067-17.067s-7.641-17.066-17.067-17.066z" />
</svg>